<?xml version="1.0" encoding="utf-8"?>
<!-- Generator: Adobe Illustrator 24.3.0, SVG Export Plug-In . SVG Version: 6.00 Build 0)  -->
<svg version="1.1" id="Layer_1" xmlns="http://www.w3.org/2000/svg" xmlns:xlink="http://www.w3.org/1999/xlink" x="0px" y="0px"
	 viewBox="0 0 582.4 107.5" style="enable-background:new 0 0 582.4 107.5;" xml:space="preserve">
<style type="text/css">
	.st0{fill:#FFFFFF;}
</style>
<g>
	<path class="st0" d="M281.7,28.2l9.9,9.9l9.9-9.9l-9.9-9.9L281.7,28.2z M291.6,32.4l-4.2-4.2l4.2-4.2l4.2,4.2L291.6,32.4z"/>
	<path class="st0" d="M273.5,78.1l18.1,18.1l18.1-18.1l-18.1-18.1L273.5,78.1z M291.6,90.5l-12.4-12.4l12.4-12.4L304,78.1
		L291.6,90.5z"/>
	<path class="st0" d="M581.4,54.9c-5-0.2-10.1-0.3-15.1-0.5c-5-0.1-10.1-0.2-15.1-0.3L536.1,54l-14.3-0.1l-5.3-5.3l-1.4-1.4
		l-1.4,1.4l-15.1,15.1l-2.9-2.9l3.2-3.2l1.4-1.4l-1.4-1.4l-9.9-9.9l-1.4-1.4l-1.4,1.4l-9,9l-106.6,0l-0.9,0l-0.6,0.6l-14,14
		l-3.8-3.8l13-13l1.6-1.6l-1.6-1.6l-21.1-21.1l-1.6-1.6l-1.6,1.6l-7,7l-1.6,1.6l1.6,1.6L345.2,50l-4.3,4.3l-26.2-26.2l6.1-6.1
		l1.5-1.5l-1.5-1.5L309.5,7.8l-5.6-5.6l-0.2-0.2l0,0l-0.1-0.1l-0.2-0.2l-0.4-0.3c-0.4-0.3-0.9-0.6-1.4-0.8c-0.5-0.2-0.9-0.3-1.4-0.4
		c-0.5-0.1-0.9-0.1-1.4-0.1c-1.9,0-3.8,0.9-5.1,2.2l-2.5,2.5l-2.5-2.5l0,0l-0.2-0.2l-0.1-0.1l-0.2-0.2l-0.4-0.3l-0.1-0.1l-0.2-0.1
		L287.2,1c-0.2-0.1-0.5-0.3-0.7-0.4c-0.5-0.2-0.9-0.3-1.4-0.4c-0.5-0.1-0.9-0.1-1.4-0.2c-1.9,0-3.8,0.8-5.1,2.1l-5.6,5.6L261.6,19
		l-1.5,1.5l1.5,1.5l6.1,6.1l-26.2,26.2l-4.3-4.3l12.4-12.5l1.6-1.6l-1.6-1.6l-7-7l-1.6-1.6l-1.6,1.6l-21.1,21.1l-1.6,1.6l1.6,1.6
		l13,13l-3.8,3.8l-14-14l-0.6-0.6l-0.9,0l-106.6,0l-9-9l-1.4-1.4l-1.4,1.4l-9.9,9.9l-1.4,1.4l1.4,1.4l3.2,3.2l-2.9,2.9L68.7,48.6
		l-1.4-1.4l-1.4,1.4l-5.3,5.3L46.3,54l-15.1,0.2c-5,0.1-10.1,0.2-15.1,0.3C11,54.6,6,54.7,1,54.9c-0.5,0-0.9,0.4-1,1
		c0,0.6,0.4,1,1,1c5,0.2,10.1,0.3,15.1,0.5c5,0.1,10.1,0.2,15.1,0.3l15.1,0.2l15.1,0.1l0.8,0l0.6-0.6l4.5-4.5L82.4,68l1.4,1.4
		l1.4-1.4l4.3-4.3l3.5,3.5l1.4,1.4l1.4-1.4l4.8-4.8l1.4-1.4l-1.4-1.4l-5-4.9l-1.4-1.4L93,54.6L89.6,58l-1.8-1.8l7-7l8.1,8.1l0.6,0.6
		l0.8,0L211,58l14.9,14.9l1.5,1.5l1.5-1.5l5.3-5.3l13,13l1.6,1.6l1.6-1.6l5.5-5.5l4.8,4.8L274.7,94l7.1,7.1l3.5,3.5l0.4,0.4
		c0.2,0.2,0.2,0.3,0.5,0.5c0.5,0.4,0.9,0.8,1.5,1.1c1.1,0.6,2.3,0.9,3.5,0.9c0.6-0.1,1.2,0,1.8-0.2l0.9-0.3c0.3-0.1,0.6-0.3,0.9-0.5
		c0.7-0.4,0.9-0.6,1.2-0.9l0.1-0.1l0.2-0.2l0.1-0.1l0.2-0.2l0.4-0.4l3.5-3.5l7.1-7.1l14.1-14.1l4.8-4.8l5.5,5.5l1.6,1.6l1.6-1.6
		l13-13l5.3,5.3l1.5,1.5l1.5-1.5L371.4,58l106.6,0l0.8,0l0.6-0.6l8.1-8.1l7,7l-1.8,1.8l-3.4-3.4l-1.4-1.4l-1.4,1.4l-5,4.9l-1.4,1.4
		l1.4,1.4l4.8,4.8l1.4,1.4l1.4-1.4l3.5-3.5l4.3,4.3l1.4,1.4l1.4-1.4l15.1-15.2l4.5,4.5l0.6,0.6l0.8,0l15.1-0.1l15.1-0.2
		c5-0.1,10.1-0.2,15.1-0.3c5-0.2,10.1-0.3,15.1-0.5c0.5,0,0.9-0.4,1-1C582.4,55.4,582,54.9,581.4,54.9z M94.4,58.9l2.1,2.1l-1.9,1.9
		l-2.1-2.1L94.4,58.9z M350,51.7l1.6-1.6l-1.6-1.6l-12.4-12.5l3.8-3.8l18,17.9L348,61.5l-3.9-3.9L350,51.7z M337.9,57.4l-11.4,11.4
		l-3.1-3.1l6.9-6.9l1.5-1.5l-1.5-1.5l-14.3-14.3l-1.5-1.6l-1.6,1.6l-8.5,8.5l-1.6,1.6l1.6,1.6l12.7,12.7l-2.9,2.9l-20-20l17.5-17.5
		L337.9,57.4z M314.5,46.1l11.2,11.2l-5.4,5.4l-11.2-11.2L314.5,46.1z M291.2,45.6l-17.5-17.5l0.4-0.4l17.1-17.1l17.1,17.1l0.4,0.4
		L291.2,45.6z M296.7,5.2c1.1-1.2,3-1.2,4.2,0l5.6,5.6l9.8,9.8l-4.6,4.6l-0.4-0.4L294.2,7.6L296.7,5.2z M266.1,20.6l9.8-9.8l5.6-5.6
		c0.6-0.6,1.3-0.9,2.1-0.9c0.2,0,0.4,0,0.6,0.1c0.2,0.1,0.4,0.1,0.5,0.2c0,0,0.1,0.1,0.2,0.1l0.1,0l0,0l0.1,0.1l0.6,0.5l2.5,2.5
		l-17.1,17.1l-0.4,0.4L266.1,20.6z M270.7,31.2l17.5,17.5l-20,20l-2.9-2.9L277.9,53l1.6-1.6l-1.6-1.6l-8.5-8.5l-1.6-1.6l-1.5,1.6
		L252,55.7l-1.5,1.5l1.5,1.5l6.9,6.9l-3.1,3.1l-11.4-11.4L270.7,31.2z M267.9,46.1l5.4,5.4L262,62.6l-5.4-5.4L267.9,46.1z
		 M222.9,50.1l18-17.9l3.8,3.8l-12.4,12.5l-1.6,1.6l1.6,1.6l5.9,5.9l-3.9,3.9L222.9,50.1z M248.8,75.9l-11.4-11.4l3.9-3.9L252.7,72
		L248.8,75.9z M318.6,76.7l-14.1,14.1l-7.1,7.1l-3.5,3.5l-0.4,0.4l-0.2,0.2l0,0l0,0c-0.3,0.2-0.7,0.6-0.8,0.6
		c-0.1,0-0.1,0.1-0.2,0.1c-0.1,0-0.2,0.1-0.3,0.1c-0.2,0.1-0.4,0-0.7,0.1c-0.4-0.1-0.9-0.1-1.3-0.4c-0.2-0.1-0.4-0.3-0.6-0.4
		c-0.1,0-0.3-0.2-0.4-0.4l-0.4-0.4l-3.5-3.5l-7.1-7.1l-14.1-14.1l-4.8-4.8l3.1-3.1l4.5,4.4l1.5,1.5l1.5-1.5l21.6-21.6l21.6,21.6
		l1.5,1.5l1.5-1.5l4.5-4.4l3.1,3.1L318.6,76.7z M333.6,75.9l-3.9-3.9l11.4-11.4l3.9,3.9L333.6,75.9z M487.8,62.9l-1.9-1.9l2.1-2.1
		l1.9,1.9L487.8,62.9z"/>
</g>
</svg>
