<svg xmlns="http://www.w3.org/2000/svg" viewBox="0 0 100.2 60.3">
<style type="text/css">  
	.st0{fill:#FFFFFF;}
</style>
<polygon class="st0" points="27.6 51.9 28.4 52 26.7 56.9 26.7 56.9 26.4 53.1 24.6 56.4 24.6 56.4 25 51.3 25.8 51.5 25.9 50.8 24.2 50.5 24 51.1 24.5 51.2 23.9 57.7 24.4 57.8 26 55 26.2 58.2 26.8 58.3 28.9 52.2 29.3 52.2 29.5 51.6 27.8 51.2 "/>
<path class="st0" d="M32.4 51.9c-1.6-0.2-2.6 1.5-2.8 3.3 -0.3 1.8 0.2 3.7 1.8 4 1.6 0.2 2.6-1.5 2.8-3.3C34.5 54.1 34 52.1 32.4 51.9zM33.6 55.8c-0.2 1.3-0.9 2.9-2.1 2.7 -1.2-0.2-1.4-1.9-1.2-3.2 0.2-1.3 0.9-2.9 2.1-2.7C33.6 52.7 33.8 54.4 33.6 55.8z"/>
<path class="st0" d="M38.3 56.5c0.8-0.2 1.3-0.8 1.4-1.8 0.1-1.3-0.7-1.9-1.7-2 -0.5 0-1 0-1.5 0 -0.3 0-0.6-0.1-0.9-0.2l-0.1 0.6 0.8 0.2 -0.5 5.6L35 58.8 35 59.5l2.3 0.2 0.1-0.7L36.4 59l0.2-2.5 0.9 0.1 1.5 3.3 1.1 0.1 0.1-0.7 -0.7-0.1L38.3 56.5zM37.2 55.9l-0.5-0.1 0.2-2.4c0.4 0 0.7 0 1 0 0.7 0.1 1.2 0.5 1.1 1.3C39 55.5 38.5 56 37.2 55.9z"/>
<path class="st0" d="M43.5 53.1c-0.4 0-0.8 0.1-1.2 0.1 -0.3 0-0.6-0.1-0.9-0.2l0 0.5 0.8 0.2 -0.3 5.6L41 59.5l0.1 0.7 1-0.1c0.4 0 0.9 0.1 1.3 0.1 1.3 0.1 2.4-0.8 2.5-3.3C46 54.4 44.9 53.2 43.5 53.1zM43.4 59.5l-1 0 0.3-5.6 0.7-0.1c0.9-0.1 2 0.8 1.9 3.1C45.2 58.9 44.4 59.5 43.4 59.5z"/>
<path class="st0" d="M50 53.3c-0.6 0-1.1 0.1-1.7 0.2 -0.3 0-0.7-0.1-1-0.1l0 0.6 0.8 0.1 0 5.7 -0.8 0 0 0.7 2.9 0 0-0.7 -1.5 0 0-2.3 0.8 0c1.4 0 2.1-0.9 2.1-2.2C51.7 53.8 50.9 53.3 50 53.3zM49.6 56.7l-0.8 0 0-2.7c0.4 0 0.8-0.1 1.1-0.1 0.7 0 1.2 0.4 1.2 1.3C51.1 56.1 50.6 56.7 49.6 56.7z"/>
<path class="st0" d="M57.5 59.4l-1.6-2.6c0.8-0.3 1.2-1 1.2-1.9 -0.1-1.3-1-1.8-1.9-1.7 -0.5 0-1 0.2-1.5 0.2 -0.3 0-0.6 0-0.9-0.1l0 0.6 0.8 0.1 0.3 5.6 -0.8 0 0 0.7 2.3-0.1 0-0.7 -0.9 0L54.3 57l0.9 0 1.9 3.1 1.1-0.1 0-0.7L57.5 59.4zM54.8 56.4l-0.5 0L54.2 54c0.3-0.1 0.7-0.1 1-0.1 0.7 0 1.2 0.3 1.3 1.2C56.5 55.8 56.1 56.4 54.8 56.4z"/>
<path class="st0" d="M63.1 57.3l0 0.2c0.1 1.3 0.1 1.4-0.7 1.5l-1.8 0.2 -0.3-2.8 1.3-0.1 0.1 1.1 0.6-0.1 -0.3-2.7 -0.6 0.1 0.1 1 -1.3 0.1 -0.2-2.2 1.6-0.2c0.8-0.1 0.8 0 0.9 1l0 0.3 0.6-0.1 -0.2-2L58.4 53l0.1 0.7 1-0.1 0.5 5.7 -1 0.1 0.1 0.7 4.8-0.5 -0.2-2.3L63.1 57.3z"/>
<path class="st0" d="M65.7 53.9c-0.1-0.9 0.6-1.3 1.1-1.4 0.4-0.1 0.9 0 1.1 0.4 0.2 0.3 0.2 0.7 0.3 1.1l0.6-0.2c-0.1-0.3-0.2-0.7-0.2-1l-0.1-1.2 -0.6 0 0 0.5c-0.3-0.2-0.8-0.2-1.1-0.1 -0.9 0.1-1.8 0.9-1.6 2.2 0.4 2.5 3.3 0.9 3.6 3 0.1 0.9-0.5 1.3-1.1 1.4 -0.9 0.1-1.3-0.2-1.5-1L66 56.9l-0.6 0.2c0.1 0.3 0.2 0.7 0.3 1l0.1 1.2 0.6 0 0-0.4c0.5 0.2 0.9 0.3 1.4 0.2 1.1-0.2 1.8-1.1 1.6-2.2C69 54.3 66 55.8 65.7 53.9z"/>
<path class="st0" d="M71.4 53c-0.2-0.9 0.5-1.3 1-1.4 0.4-0.1 0.9 0 1.1 0.3 0.2 0.3 0.3 0.7 0.4 1l0.6-0.2c-0.1-0.3-0.3-0.6-0.3-1L74 50.5l-0.6 0 0 0.5c-0.3-0.1-0.8-0.1-1.1-0.1 -0.9 0.2-1.8 1-1.5 2.3 0.5 2.5 3.4 0.7 3.8 2.8 0.2 0.9-0.4 1.4-1 1.5 -0.9 0.2-1.3-0.1-1.6-0.9l-0.2-0.5 -0.5 0.2c0.1 0.3 0.3 0.6 0.3 1l0.2 1.2 0.6 0 -0.1-0.4c0.5 0.2 0.9 0.2 1.4 0.1 1.1-0.2 1.7-1.2 1.5-2.3C74.7 53.1 71.8 54.8 71.4 53z"/>
<path class="st0" d="M91.3 47.9c-1.8 1.1-3.9 2.1-6.1 3 -2.3 0.9-4.8 1.7-7.5 2.5 -0.2 0-0.3 0.2-0.2 0.4 0 0.1 0.2 0.2 0.3 0.2 0 0 0.1 0 0.1 0 2.7-0.7 5.2-1.6 7.5-2.5 2.3-0.9 4.4-2 6.2-3 0.2-0.1 0.2-0.3 0.1-0.4C91.6 47.9 91.4 47.8 91.3 47.9z"/>
<path class="st0" d="M21.3 53.1c-2.7-0.7-5.2-1.6-7.4-2.5 -2.3-0.9-4.3-2-6.1-3.1 -0.2-0.1-0.3 0-0.4 0.1 -0.1 0.2 0 0.3 0.1 0.4 1.8 1.1 3.9 2.2 6.2 3.1 2.3 1 4.8 1.8 7.5 2.6 0 0 0.1 0 0.1 0 0.1 0 0.3-0.1 0.3-0.2C21.6 53.3 21.5 53.1 21.3 53.1z"/>
<path class="st0" d="M27.4 19.5c0.6 0.4 1.3 0.6 2.1 0.5 0.8-0.1 1.8-0.5 2.3-1.6 0 0.1 0 0.3 0.1 0.5l0.6 4.5 0.6-0.1 -1.3-9.4 0-0.1 -0.6 0.1 0.1 0.6c0 0.2 0 0.3 0.1 0.5 -0.6-0.7-1.5-1.1-2.5-0.9 -0.8 0.1-1.5 0.5-2 1.1 -0.5 0.6-0.7 1.5-0.6 2.4C26.4 18.3 26.8 19 27.4 19.5zM28.9 14.5c0.1 0 0.2 0 0.3 0 0.5 0 1 0.2 1.4 0.5 0.5 0.4 0.8 0.9 0.9 1.5l0.1 0.5c0.1 0.5-0.1 1.1-0.5 1.6 -0.4 0.5-0.9 0.8-1.5 0.9 -0.6 0.1-1.3-0.1-1.8-0.5 -0.5-0.4-0.8-1-0.9-1.7C26.7 15.8 27.5 14.7 28.9 14.5z"/>
<path class="st0" d="M37.4 19.1c0 0 0.1 0 0.1 0 0.7-0.1 1.2-0.5 1.7-1.3l0 0c0.4-0.7 0.8-1.6 1.1-2.7 0 0.2 0 0.5 0 0.8l0.2 2.8 0.6 0L41 15.2c-0.1-1-0.1-1.7 0-2.2l0-0.1 -0.6-0.1 0 0.1c-0.8 3.7-1.7 5.5-2.8 5.6 -0.8 0.1-1.3-0.4-1.3-1.3L36 13.4l-0.6 0 0.3 4C35.8 18.4 36.5 19.1 37.4 19.1z"/>
<path class="st0" d="M46.8 18.6C46.9 18.6 46.9 18.6 46.8 18.6c0.9 0 1.9-0.3 2.5-1.4 0 0.1 0 0.3 0 0.5l0 0.6 0.6 0 -0.1-5.7 -0.6 0 0 0.6c0 0.2 0 0.3 0 0.5C48.8 13 48 12.6 47 12.6c0 0 0 0-0.1 0 -1.5 0-3 1-3 3.2 0 0.9 0.3 1.6 0.9 2.1C45.4 18.3 46.1 18.6 46.8 18.6zM46.9 13.1C46.9 13.1 47 13.1 46.9 13.1c1.3 0 2.3 1 2.4 2.2l0 0.5c0 0.6-0.2 1.1-0.7 1.6 -0.4 0.5-1 0.7-1.6 0.7 0 0 0 0-0.1 0 -1.4 0-2.4-1-2.4-2.4C44.6 14.2 45.5 13.1 46.9 13.1z"/>
<polygon class="st0" points="54.5 0.1 54.5 0 53.9 0 53.5 18.3 53.5 18.4 54.1 18.4 "/>
<path class="st0" d="M58.3 11.5C58.3 11.5 58.3 11.5 58.3 11.5c0.1 0 0.2 0 0.3-0.1 0.1-0.1 0.1-0.2 0.1-0.3 0-0.2-0.2-0.4-0.4-0.4 0 0 0 0 0 0 -0.2 0-0.4 0.2-0.4 0.4C57.9 11.3 58 11.5 58.3 11.5z"/>
<polygon class="st0" points="58.5 13 58.5 12.9 57.9 12.8 57.7 18.4 57.7 18.5 58.2 18.6 "/>
<polygon class="st0" points="62.8 18.9 63.3 18.9 63.7 13.8 65.6 14 65.6 13.5 63.8 13.3 64 10.5 63.4 10.4 63.2 13.3 61.4 13.1 61.3 13.6 63.2 13.8 "/>
<path class="st0" d="M66.9 23.3c1.1-1.2 2.1-2.6 2.8-3.8l3.2-5.3 -0.6-0.1 -2.7 4.6 -1.4-5 0-0.1 -0.7-0.1 1.7 5.8c-0.5 0.8-1.7 2.3-2.7 3.5l-0.1 0.1L66.9 23.3 66.9 23.3z"/>
<path class="st0" d="M36.2 9.1L37 9l0.1 1.5c0.1 1-0.1 1.5-0.6 2l-0.1 0.1 0.2 0.3 0.1-0.1c0.6-0.5 0.9-1.2 0.8-2.3L37.4 9l0.7-0.1 0-0.3 -0.7 0.1L37.1 6c-0.1-1.4 0.4-2.3 1.4-2.3 0.2 0 0.5 0 0.6 0.1l0.1 0 0.1-0.3 -0.1 0c-0.2-0.1-0.5-0.1-0.8-0.1h0c-1.2 0.1-1.9 1.1-1.7 2.7L37 8.7l-0.7 0.1L36.2 9.1z"/>
<path class="st0" d="M39 7.7c0 0-0.1 0.1-0.1 0.2C39 7.9 39 8 39 8c0 0 0.1 0.1 0.2 0.1 0 0 0 0 0 0h0c0.1 0 0.2-0.1 0.2-0.3 0-0.1 0-0.1-0.1-0.2 0 0-0.1-0.1-0.2-0.1C39.1 7.6 39.1 7.6 39 7.7zM39.2 8L39.2 8 39.2 8 39.2 8z"/>
<polygon class="st0" points="39.1 8.5 39.2 10.9 39.6 10.9 39.4 8.5 "/>
<path class="st0" d="M40.9 10.7l0 0.1 0.3 0.1 0-0.1c0.4-1.4 0.8-2.2 1.2-2.2 0 0 0 0 0 0 0.4 0 0.4 0.3 0.4 0.5l0.1 1.6 0.4 0L43.2 9c0-0.2-0.1-0.4-0.3-0.6 -0.1-0.1-0.3-0.2-0.5-0.2 -0.3 0-0.6 0.2-0.8 0.5 -0.1 0.2-0.3 0.5-0.4 0.8l-0.1-1.2 -0.4 0 0.1 1.5C40.9 10.3 40.9 10.5 40.9 10.7z"/>
<path class="st0" d="M45.5 10.7C45.5 10.7 45.5 10.7 45.5 10.7c0.5 0 0.8-0.2 1.1-0.5l0.1-0.1 -0.2-0.2L46.3 10c-0.2 0.3-0.4 0.4-0.7 0.4 0 0 0 0 0 0 -0.2 0-0.5-0.1-0.6-0.2 -0.2-0.1-0.2-0.4-0.3-0.6l2 0 0-0.2c0-0.3-0.1-0.6-0.3-0.8 -0.2-0.2-0.5-0.3-0.8-0.3 0 0 0 0 0 0 -0.8 0-1.2 0.5-1.2 1.4C44.3 10.2 44.8 10.7 45.5 10.7zM45.5 8.5C45.5 8.5 45.5 8.5 45.5 8.5c0.2 0 0.4 0.1 0.5 0.2 0.1 0.1 0.2 0.3 0.2 0.5l-1.6 0C44.8 8.8 45 8.5 45.5 8.5z"/>
<path class="st0" d="M48.3 10.4c-0.2 0-0.3 0-0.5-0.2l-0.1-0.1 -0.2 0.3 0.1 0.1c0.2 0.2 0.4 0.2 0.7 0.2 0 0 0 0 0 0 0.5 0 0.8-0.3 0.8-0.7 0-0.4-0.2-0.6-0.7-0.7 -0.4-0.1-0.5-0.3-0.5-0.5 0-0.2 0.2-0.4 0.4-0.4 0.2 0 0.3 0.1 0.4 0.2l0.1 0.1 0.3-0.2L49 8.4c-0.2-0.2-0.4-0.3-0.6-0.3 0 0 0 0 0 0 -0.2 0-0.5 0.1-0.6 0.2 -0.1 0.1-0.2 0.3-0.2 0.5 0 0.4 0.3 0.6 0.7 0.8 0.4 0.1 0.5 0.2 0.5 0.4 0 0.1 0 0.1-0.1 0.2C48.6 10.3 48.4 10.4 48.3 10.4z"/>
<polygon class="st0" points="51 7.1 50.6 7.1 50.6 8.2 49.9 8.2 49.9 8.6 50.6 8.6 50.6 10.6 51 10.6 51 8.6 51.7 8.6 51.7 8.2 51 8.2 "/>
<path class="st0" d="M12.5 38.2h-0.7c-0.3 0.2-0.6 0.5-0.8 0.9 -0.5 0.8-0.7 1.8-0.7 2.7h-5V26.8l1.4-0.4V26H0v0.4l1.4 0.4v15L0 42.1v0.4h12.5V38.2z"/>
<path class="st0" d="M21.7 25.8H21l-6.4 15.6 -1.9 0.7v0.4H17v-0.4l-1.8-0.7 1.5-3.7h5.6l1.2 2.8c0.2 0.6 0.6 1.1 1.1 1.4 0.5 0.4 1.2 0.6 2 0.6h2.8v-0.4l-1.2-0.4L21.7 25.8zM17 37.1l2.6-6.2 2.6 6.2H17z"/>
<path class="st0" d="M30.2 26.4l1.4 0.4v14.6l-1.9 0.7v0.4h4.5v-0.4l-1.9-0.7V29l7.1 13.7h0.7L45.7 29v12.8l-1.4 0.4v0.4h6.7v-0.4l-1.4-0.4v-15l1.4-0.4V26h-2.5c-0.9 0-1.6 0.2-2.1 0.5 -0.5 0.3-0.8 0.8-1.1 1.5l-3.9 9.8L36.3 28c-0.3-0.7-0.8-1.2-1.2-1.5C34.6 26.2 34 26 33.1 26h-2.9V26.4z"/>
<path class="st0" d="M65.4 41.3c1.1-0.8 1.7-1.9 1.7-3.3 0-0.9-0.3-1.7-0.9-2.3 -0.6-0.6-1.3-1-2.1-1.3 -0.8-0.3-1.8-0.5-3-0.5v-0.1c0.9 0 1.8-0.2 2.6-0.4 0.8-0.3 1.4-0.6 1.9-1.1 0.5-0.5 0.7-1.2 0.7-2 0-1.2-0.6-2.2-1.7-3S61.7 26 59.4 26h-6.3v0.4l1.4 0.4v15l-1.4 0.4v0.4h6.8C62.4 42.4 64.3 42 65.4 41.3zM58.3 26.6h1.1c0.5 0 1 0.1 1.4 0.4 0.4 0.3 0.8 0.7 1.1 1.2 0.3 0.5 0.4 1.1 0.4 1.8 0 0.6-0.1 1.2-0.4 1.7s-0.6 0.9-1.1 1.2c-0.4 0.3-0.9 0.4-1.4 0.4h-1.1V26.6zM58.3 34.1h1.5c1 0 1.8 0.3 2.4 1 0.6 0.7 0.9 1.6 0.9 2.8s-0.3 2.1-0.9 2.8c-0.6 0.7-1.4 1-2.4 1h-1.5V34.1z"/>
<path class="st0" d="M69 26.4l1.4 0.4v15L69 42.1v0.4h6c2.8 0 4.9-0.7 6.4-2.2 1.5-1.4 2.2-3.5 2.2-6 0-2.6-0.7-4.6-2.2-6S77.7 26 75 26h-6V26.4zM74.2 26.6H75c1.5 0 2.6 0.6 3.4 1.8 0.8 1.2 1.2 3.1 1.2 5.8 0 2.7-0.4 4.7-1.2 5.8 -0.8 1.2-1.9 1.8-3.4 1.8h-0.7V26.6z"/>
<path class="st0" d="M99.1 41.7l-6.7-15.9h-0.7l-6.4 15.6 -1.9 0.7v0.4h4.3v-0.4L86 41.4l1.5-3.7h5.6l1.2 2.8c0.3 0.6 0.6 1.1 1.1 1.4 0.5 0.4 1.2 0.6 2 0.6h2.8v-0.4L99.1 41.7zM87.7 37.1l2.6-6.2 2.6 6.2H87.7z"/></svg>