<?xml version="1.0" encoding="utf-8"?>
<!-- Generator: Adobe Illustrator 24.3.0, SVG Export Plug-In . SVG Version: 6.00 Build 0)  -->
<svg version="1.1" id="Layer_1" xmlns="http://www.w3.org/2000/svg" xmlns:xlink="http://www.w3.org/1999/xlink" x="0px" y="0px"
	 viewBox="0 0 628.7 58.1" style="enable-background:new 0 0 628.7 58.1;" xml:space="preserve">
<style type="text/css">
	.st0{fill:#CA9A2C;}
</style>
<g id="decoration_4_1_">
	<g>
		<path class="st0" d="M151.1,40L0,38l151.1-2c1.1,0,2,0.9,2,2C153.1,39.1,152.2,40,151.1,40C151.1,40,151.1,40,151.1,40z"/>
	</g>
	<g>
		<path class="st0" d="M477.7,36l151.1,2l-151.1,2c-1.1,0-2-0.9-2-2C475.6,36.9,476.5,36,477.7,36C477.6,36,477.6,36,477.7,36z"/>
	</g>
	<g>
		<path class="st0" d="M336.2,58.1c-1.5,0-3.1-0.6-4.2-1.8l-14.8-14.8c-2.3-2.3-2.3-6.1,0-8.5l9.5-9.5c1.1-1.1,2.6-1.8,4.2-1.8
			s3.1,0.6,4.2,1.8l1.8,1.8l3.4-3.4L322.9,4.6c-0.8-0.8-2-0.8-2.8,0l-2.9,2.9l5.1,5.1c2.3,2.3,2.3,6.1,0,8.5l-8,8l-8-8
			c-2.3-2.3-2.3-6.1,0-8.5l5.1-5.1l-2.9-2.9c-0.8-0.8-2.1-0.8-2.8,0l-17.3,17.3l3.4,3.4l1.8-1.8c2.3-2.3,6.1-2.3,8.5,0l9.5,9.5
			c1.1,1.1,1.8,2.6,1.8,4.2s-0.6,3.1-1.8,4.2l-14.8,14.8c-2.3,2.3-6.1,2.3-8.5,0l-17.1-17.1l-5.1,5.1c-2.3,2.3-6.1,2.3-8.5,0
			l-1.4-1.4c-1.1-1.1-1.8-2.6-1.8-4.3c0-1.6,0.6-3.1,1.8-4.3l5.1-5.1l-2.6-2.6c-0.8-0.8-2-0.8-2.8,0l-11.5,11.5
			c-1.1,1.1-2.6,1.8-4.2,1.8l-89,0c-1.1,0-2-0.9-2-2s0.9-2,2-2l0,0l89,0c0.5,0,1-0.2,1.4-0.6L253,23.9c2.3-2.3,6.1-2.3,8.5,0
			l2.6,2.6l10.2-10.2c1.1-1.1,2.6-1.8,4.2-1.8c1.6,0,3.1,0.6,4.2,1.8l2.8,2.8L303,1.8c1.1-1.1,2.6-1.8,4.2-1.8
			c1.6,0,3.1,0.6,4.2,1.8l2.9,2.9l2.9-2.9c2.3-2.3,6.1-2.3,8.5,0l17.3,17.3l2.8-2.8c1.1-1.1,2.6-1.8,4.2-1.8s3.1,0.6,4.2,1.8
			l10.2,10.2l2.6-2.6c2.3-2.3,6.1-2.3,8.5,0l11.5,11.5c0.4,0.4,0.9,0.6,1.4,0.6l89,0c1.1,0,2,0.9,2,2s-0.9,2-2,2l-89,0
			c-1.6,0-3.1-0.6-4.2-1.8l-11.5-11.5c-0.8-0.8-2-0.8-2.8,0l-2.6,2.6l5.1,5.1c1.1,1.1,1.8,2.7,1.8,4.3s-0.6,3.1-1.8,4.3l-1.4,1.4
			c-2.3,2.3-6.1,2.3-8.5,0l-5.1-5.1l-17.1,17.1C339.3,57.5,337.7,58.1,336.2,58.1z M330.8,25.8c-0.5,0-1,0.2-1.4,0.6l-9.5,9.5
			c-0.8,0.8-0.8,2,0,2.8l14.8,14.8c0.8,0.8,2,0.8,2.8,0l17.1-17.1l-11.7-11.7l-3.4,3.4l4.2,4.2c2.3,2.3,2.3,6.1,0,8.5l-2.6,2.6
			c-2.3,2.3-6.1,2.3-8.5,0l-2.8-2.8c-2.3-2.3-2.3-6.1,0-8.5l4.1-4.1l-1.8-1.8C331.9,26,331.4,25.8,330.8,25.8z M274,36.4l17.1,17.1
			c0.8,0.8,2,0.8,2.8,0l14.8-14.8c0.4-0.4,0.6-0.9,0.6-1.4s-0.2-1-0.6-1.4l-9.5-9.5c-0.8-0.8-2-0.8-2.8,0l-1.8,1.8l4.1,4.1
			c2.3,2.3,2.3,6.1,0,8.5l-2.8,2.8c-1.1,1.1-2.6,1.8-4.2,1.8c-1.6,0-3.1-0.6-4.2-1.8l-2.6-2.6c-1.1-1.1-1.8-2.6-1.8-4.2
			c0-1.6,0.6-3.1,1.8-4.2l4.2-4.2l-3.4-3.4L274,36.4z M264.1,32.2l-5.1,5.1c-0.4,0.4-0.6,0.9-0.6,1.4c0,0.5,0.2,1,0.6,1.4l1.4,1.4
			c0.8,0.8,2,0.8,2.8,0l5.1-5.1L264.1,32.2z M360.4,36.4l5.1,5.1c0.8,0.8,2,0.8,2.8,0l1.4-1.4c0.4-0.4,0.6-0.9,0.6-1.4
			c0-0.5-0.2-1-0.6-1.4l-5.1-5.1L360.4,36.4z M291.9,31l-4.2,4.2c-0.8,0.8-0.8,2,0,2.8l2.6,2.6c0.8,0.8,2.1,0.8,2.8,0l2.8-2.8
			c0.8-0.8,0.8-2,0-2.8L291.9,31z M336.8,31l-4.1,4.1c-0.8,0.8-0.8,2,0,2.8l2.8,2.8c0.8,0.8,2,0.8,2.8,0l2.6-2.6
			c0.8-0.8,0.8-2,0-2.8L336.8,31z M266.9,29.3l4.3,4.3l11.7-11.7l-2.8-2.8c-0.8-0.8-2.1-0.8-2.8,0L266.9,29.3z M345.9,21.9
			l11.7,11.7l4.3-4.3l-10.2-10.2c-0.8-0.8-2.1-0.8-2.8,0L345.9,21.9z M314.4,10.3l-5.1,5.1c-0.8,0.8-0.8,2,0,2.8l5.1,5.1l5.1-5.1
			c0.8-0.8,0.8-2,0-2.8L314.4,10.3z"/>
	</g>
</g>
</svg>
